{"title":"Brians Song - [Drama] - (1971) - DVDRip x264 - [=Faith=]","uid":14339934,"size":705981963,"categoryP":"video","categoryS":"movies","magnet":"?xt=urn:btih:4fb54aa9d2e0d009ce4b42828f3029d5b9897943&amp;dn=Brians+Song+-+%5BDrama%5D+-+%281971%29+-+DVDRip+x264+-+%5B%3DFaith%3D%5D&amp;tr=udp%3A%2F%2Ftracker.leechers-paradise.org%3A6969&amp;tr=udp%3A%2F%2Fzer0day.ch%3A1337&amp;tr=udp%3A%2F%2Fopen.demonii.com%3A1337&amp;tr=udp%3A%2F%2Ftracker.coppersurfer.tk%3A6969&amp;tr=udp%3A%2F%2Fexodus.desync.com%3A6969","seeders":4,"leechers":0,"uploader":"Faithwyn","files":3,"time":1460749222,"description":"Brians Song - 1971\r\n\r\n\r\n\r\nGale Sayers joins the Chicago Bears and is befriended by Brian Piccolo,\r\nan over-achieving running back. Although they compete for the same spot\r\non the team, and despite the fact that Sayers is black and Piccolo white,\r\nthey become roommates on the road and very close friends, especially\r\nwhen Sayers is injured and Piccolo helps his recovery. Later, they and\r\ntheir wives must both deal with the harsh reality of Piccolo's cancer.\r\n\r\n\r\nThe Film:\r\n\r\nTitle: Brians Song\r\nGenre: Drama\r\nReleased: 1971\r\nDirector: Buzz Kulik\r\nWriters: William Blinn, Gale Sayers (book)\r\nStars: James Caan, Billy Dee Williams, Jack Warden\r\nIMDB Rating: 7.6\r\n\r\n\r\nGeneral:\r\n\r\nComplete name : Brians Song (1971).mp4\r\nFormat : MPEG-4\r\nFormat profile : Base Media / Version 2\r\nCodec ID : mp42\r\nFile size : 673 MiB\r\nDuration : 1h 14mn\r\nOverall bit rate mode : Variable\r\nOverall bit rate : 1 266 Kbps\r\nEncoded date : UTC 2014-03-27 06:04:21\r\nTagged date : UTC 2014-03-27 06:26:12\r\nWriting application : HandBrake 0.9.9\r\n\r\n\r\nVideo:\r\n\r\nID : 1\r\nFormat : AVC\r\nFormat/Info : Advanced Video Codec\r\nFormat profile :   \r\nFormat settings, CABAC : Yes\r\nFormat settings, ReFrames : 4 frames\r\nCodec ID : avc1\r\nCodec ID/Info : Advanced Video Coding\r\nDuration : 1h 14mn\r\nBit rate mode : Variable\r\nBit rate : 1 111 Kbps\r\nWidth : 716 pixels\r\nHeight : 480 pixels\r\nDisplay aspect ratio : 4:3\r\nFrame rate mode : Variable\r\nFrame rate : 23.976 fps\r\nMinimum frame rate : 17.110 fps\r\nMaximum frame rate : 29.970 fps\r\nColor space : YUV\r\nChroma subsampling : 4:2:0\r\nBit depth : 8 bits\r\nScan type : Progressive\r\nBits/(Pixel*Frame) : 0.135\r\nStream size : 591 MiB (88%)\r\nWriting library : x264 core 130 r2273 b3065e6\r\nEncoded date : UTC 2014-03-27 06:04:21\r\nTagged date : UTC 2014-03-27 06:26:12\r\nColor primaries : BT.601 NTSC\r\nTransfer characteristics : BT.709\r\nMatrix coefficients : BT.601\r\n\r\n\r\nAudio:\r\n\r\nID : 2\r\nFormat : MPEG Audio\r\nFormat version : Version 1\r\nFormat profile : Layer 3\r\nCodec ID : 69\r\nDuration : 1h 14mn\r\nBit rate mode : Variable\r\nBit rate : 148 Kbps\r\nMaximum bit rate : 188 Kbps\r\nChannel(s) : 2 channels\r\nSampling rate : 48.0 KHz\r\nCompression mode : Lossy\r\nDelay relative to video : 67ms\r\nStream size : 78.7 MiB (12%)\r\nLanguage : English","torrent":{"xt":"urn:btih:4fb54aa9d2e0d009ce4b42828f3029d5b9897943","amp;dn":"Brians+Song+-+%5BDrama%5D+-+%281971%29+-+DVDRip+x264+-+%5B%3DFaith%3D%5D","amp;tr":["udp%3A%2F%2Ftracker.leechers-paradise.org%3A6969","udp%3A%2F%2Fzer0day.ch%3A1337","udp%3A%2F%2Fopen.demonii.com%3A1337","udp%3A%2F%2Ftracker.coppersurfer.tk%3A6969","udp%3A%2F%2Fexodus.desync.com%3A6969"],"infoHash":"4fb54aa9d2e0d009ce4b42828f3029d5b9897943","infoHashBuffer":{"type":"Buffer","data":[79,181,74,169,210,224,208,9,206,75,66,130,143,48,41,213,185,137,121,67]},"announce":[],"urlList":[]}}